<?xml version="1.0" encoding="UTF-8"?><svg id="a" xmlns="http://www.w3.org/2000/svg" viewBox="0 0 150 120"><path d="M31.03,50.04c-5.5,0-9.96,4.46-9.96,9.96s4.46,9.96,9.96,9.96,9.96-4.46,9.96-9.96-4.46-9.96-9.96-9.96ZM30.51,67.99v-6.25h-3.47l4.99-9.72v6.25h3.34l-4.86,9.72Z" style="fill:#009688; isolation:isolate; opacity:.98;"/><path d="M48.95,68.54v-17.2h10.38v2.06h-7.97v5.19h7.07v2.04h-7.07v7.92h-2.41ZM65.24,66.88h.35c.4,0,.76-.01,1.09-.02.43-.03.79-.08,1.07-.15v-3.85c-.17-.08-.44-.15-.82-.2-.36-.07-.81-.1-1.34-.1-.35,0-.72.02-1.12.07-.38.05-.74.16-1.07.32-.31.15-.58.36-.79.65-.22.26-.32.62-.32,1.07,0,.83.26,1.41.79,1.74.53.31,1.25.47,2.16.47ZM65.04,55.31c.87,0,1.61.11,2.21.33l.12.05c.6.22,1.09.53,1.46.93l.08.09c.4.43.68.95.84,1.56.17.6.25,1.26.25,1.99v8.07l-.45.08c-.12.02-.25.05-.4.07l-.27.04c-.28.04-.59.07-.92.11-.45.05-.94.09-1.46.12-.51.05-1.03.07-1.54.07-.73,0-1.4-.07-2.01-.22-.61-.15-1.14-.38-1.59-.7-.45-.33-.79-.76-1.04-1.29-.25-.53-.37-1.17-.37-1.91s.14-1.32.42-1.84c.3-.51.7-.93,1.19-1.24.5-.31,1.08-.55,1.74-.7.66-.15,1.36-.22,2.09-.22.23,0,.47.02.72.05.25.02.48.05.7.1l.22.03c.1.02.2.03.29.05l.34.07s.07.02.1.02v-.65c0-.38-.04-.75-.12-1.12-.08-.38-.23-.71-.45-.99-.22-.3-.51-.53-.89-.7-.36-.18-.84-.27-1.44-.27-.7,0-1.32.05-1.86.15l-.38.07c-.45.09-.79.18-1.03.28l-.27-1.91c.3-.13.79-.26,1.49-.37.63-.12,1.3-.18,2.02-.2h.24ZM76.82,66.88c.94,0,1.64-.12,2.09-.37.46-.25.7-.65.7-1.19s-.22-1.01-.67-1.34c-.45-.33-1.18-.7-2.21-1.12-.5-.2-.98-.4-1.44-.6-.45-.22-.84-.46-1.17-.74-.33-.28-.6-.62-.79-1.02-.2-.4-.3-.89-.3-1.46,0-1.14.42-2.04,1.27-2.71.84-.68,1.99-1.02,3.45-1.02.36,0,.73.02,1.09.07.36.03.7.08,1.02.15.27.04.51.09.72.15l.28.08c.16.05.3.09.4.13l-.42,1.99c-.25-.13-.64-.26-1.17-.4-.53-.15-1.17-.22-1.91-.22-.65,0-1.21.13-1.69.4-.48.25-.72.65-.72,1.19,0,.28.05.53.15.74.12.22.28.41.5.6.23.17.51.32.84.47.33.15.73.31,1.19.47.61.23,1.16.46,1.64.7.48.22.89.47,1.22.77.35.3.61.66.79,1.09.18.41.27.93.27,1.54,0,1.19-.45,2.09-1.34,2.71-.88.61-2.13.92-3.77.92-1.08,0-1.95-.09-2.58-.27l-.52-.15c-.42-.12-.72-.22-.89-.3l.42-1.99.32.12c.25.09.56.2.95.33.55.19,1.26.29,2.14.3h.17ZM87.03,55.63h4.89v1.94h-4.89v5.96c0,.65.05,1.18.15,1.61.1.41.25.74.45.99.2.23.45.4.74.5.3.1.65.15,1.04.15.7,0,1.25-.07,1.66-.22l.89-.35.45,1.91c-.23.12-.64.26-1.22.42-.58.18-1.24.27-1.99.27-.88,0-1.61-.11-2.18-.32-.56-.23-1.02-.57-1.37-1.02-.35-.45-.6-.99-.74-1.64-.13-.66-.2-1.42-.2-2.28v-11.52l2.31-.4v4ZM106.5,68.54c-.28-.74-.55-1.47-.79-2.18-.25-.73-.5-1.46-.77-2.21h-7.79l-1.56,4.39h-2.51l.56-1.53c.32-.87.63-1.7.93-2.5l.72-1.93c.46-1.22.91-2.38,1.34-3.5.5-1.24.99-2.42,1.48-3.55l.18-.42c.55-1.27,1.12-2.53,1.71-3.77h2.21c.5,1.03.98,2.08,1.44,3.14l.28.64c.55,1.26,1.09,2.58,1.64,3.97.51,1.25,1.02,2.57,1.54,3.95l.55,1.47c.47,1.26.96,2.6,1.48,4.03h-2.63ZM104.24,62.16c-.53-1.44-1.06-2.83-1.59-4.17-.51-1.36-1.05-2.66-1.61-3.9-.58,1.24-1.13,2.54-1.66,3.9-.51,1.34-1.03,2.73-1.54,4.17h6.4ZM116.01,51.16c2.35,0,4.17.44,5.46,1.32l.1.07c1.31.91,1.96,2.28,1.96,4.1,0,.99-.18,1.85-.55,2.56-.35.7-.86,1.27-1.54,1.71-.66.43-1.47.74-2.43.94-.96.2-2.04.3-3.25.3h-1.91v6.38h-2.41v-16.95c.68-.17,1.43-.27,2.26-.32.76-.06,1.46-.09,2.1-.1h.21ZM116.21,53.27h-.47c-.8,0-1.43.03-1.89.07v6.75h1.81c.83,0,1.57-.05,2.23-.15.66-.12,1.22-.3,1.66-.55.46-.26.82-.62,1.07-1.07.25-.45.37-1.02.37-1.71,0-.62-.12-1.14-.35-1.56l-.05-.08c-.25-.43-.6-.77-1.04-1.02-.43-.26-.94-.45-1.51-.55-.58-.1-1.19-.15-1.84-.15ZM126.52,51.34h2.41v17.2h-2.41v-17.2Z" style="fill:#009688;"/></svg>