<?xml version="1.0" encoding="UTF-8"?>
<svg id="a" xmlns="http://www.w3.org/2000/svg" xmlns:xlink="http://www.w3.org/1999/xlink" version="1.1" viewBox="0 0 150 120">
  <!-- Generator: Adobe Illustrator 29.3.1, SVG Export Plug-In . SVG Version: 2.1.0 Build 151)  -->
  <defs>
    <style>
      .st0 {
        fill: url(#linear-gradient2);
      }

      .st1 {
        fill: url(#linear-gradient1);
      }

      .st2 {
        fill: url(#linear-gradient3);
      }

      .st3 {
        fill: url(#linear-gradient5);
      }

      .st4 {
        fill: url(#linear-gradient4);
      }

      .st5 {
        fill: url(#linear-gradient);
      }

      .st6 {
        fill: #8c99cd;
      }

      .st7 {
        fill: #fff;
      }
    </style>
    <linearGradient id="linear-gradient" x1="-86.7" y1="-174.3" x2="-57.7" y2="-174.3" gradientTransform="translate(147 -118) scale(1 -1)" gradientUnits="userSpaceOnUse">
      <stop offset="0" stop-color="#ff2c6d"/>
      <stop offset="1" stop-color="#7fe4ff"/>
    </linearGradient>
    <linearGradient id="linear-gradient1" x1="-86.7" y1="-166" x2="-57.7" y2="-166" xlink:href="#linear-gradient"/>
    <linearGradient id="linear-gradient2" y1="-166" y2="-166" xlink:href="#linear-gradient"/>
    <linearGradient id="linear-gradient3" x1="-86.7" y1="-166" x2="-57.7" y2="-166" xlink:href="#linear-gradient"/>
    <linearGradient id="linear-gradient4" x1="-86.7" y1="-166" x2="-57.7" y2="-166" xlink:href="#linear-gradient"/>
    <linearGradient id="linear-gradient5" x1="-86.7" x2="-57.7" xlink:href="#linear-gradient"/>
  </defs>
  <rect x="49.4" y="34.4" width="51.2" height="51.2" rx="2.7" ry="2.7"/>
  <g>
    <g>
      <g>
        <circle class="st6" cx="79" cy="56.3" r="2.1"/>
        <circle class="st6" cx="87.3" cy="48" r="2.1"/>
        <circle class="st6" cx="79" cy="48" r="2.1"/>
        <circle class="st6" cx="70.7" cy="48" r="2.1"/>
        <circle class="st6" cx="62.4" cy="48" r="2.1"/>
        <circle class="st6" cx="62.4" cy="56.3" r="2.1"/>
      </g>
      <g>
        <circle class="st5" cx="79" cy="56.3" r="2.1"/>
        <circle class="st1" cx="87.3" cy="48" r="2.1"/>
        <circle class="st0" cx="79" cy="48" r="2.1"/>
        <circle class="st2" cx="70.7" cy="48" r="2.1"/>
        <circle class="st4" cx="62.4" cy="48" r="2.1"/>
        <circle class="st3" cx="62.4" cy="56.3" r="2.1"/>
      </g>
    </g>
    <g>
      <path class="st7" d="M62.4,62.5c-1.1,0-2.1.9-2.1,2.1v8.3c0,1.1.9,2.1,2.1,2.1s2.1-.9,2.1-2.1v-8.3c0-1.1-.9-2.1-2.1-2.1Z"/>
      <path class="st7" d="M79,62.5c-1.1,0-2.1.9-2.1,2.1v8.3c0,1.1.9,2.1,2.1,2.1s2.1-.9,2.1-2.1v-8.3c0-1.1-.9-2.1-2.1-2.1Z"/>
      <path class="st7" d="M70.7,54.2c-1.1,0-2.1.9-2.1,2.1v16.6c0,1.1.9,2.1,2.1,2.1s2.1-.9,2.1-2.1v-16.6c0-1.1-.9-2.1-2.1-2.1Z"/>
      <path class="st7" d="M87.3,54.2c-1.1,0-2.1.9-2.1,2.1v16.6c0,1.1.9,2.1,2.1,2.1s2.1-.9,2.1-2.1v-16.6c0-1.1-.9-2.1-2.1-2.1Z"/>
    </g>
  </g>
</svg>