<?xml version="1.0" encoding="UTF-8"?><svg id="a" xmlns="http://www.w3.org/2000/svg" viewBox="0 0 150 120"><path d="M41.887,64.928v-9.248h2.015v9.965c.095.798.027,1.623-.203,2.393-.23.771-.608,1.501-1.122,2.123-.946.825-2.177,1.271-3.434,1.244l-.216-1.501c.811,0,1.595-.297,2.19-.838.541-.635.757-1.487.757-4.124l.014-.014ZM56.922,63.738c0,1.122,0,2.136.095,3.015h-1.785l-.122-1.785c-.379.635-.906,1.163-1.555,1.514-.635.365-1.366.541-2.109.527-1.744,0-3.826-.946-3.826-4.814v-6.423h2.015v6.017c0,2.096.649,3.488,2.461,3.488.379,0,.744-.068,1.095-.203s.663-.352.933-.622c.27-.27.473-.581.622-.933.135-.352.216-.717.203-1.095v-6.733h2.015v7.991s-.041.054-.041.054ZM60.749,59.343c0-1.393,0-2.542-.095-3.583h1.812l.095,1.879c.406-.676.987-1.23,1.677-1.609.69-.379,1.474-.554,2.272-.527,2.677,0,4.692,2.244,4.692,5.584,0,3.948-2.42,5.895-5.043,5.895-.676.027-1.339-.108-1.934-.419-.595-.297-1.109-.757-1.474-1.312v6.017h-1.988v-11.926h-.014ZM62.736,62.277c0,.27.041.541.095.811.176.663.554,1.257,1.109,1.677.541.419,1.217.649,1.906.649,2.123,0,3.367-1.731,3.367-4.246,0-2.19-1.176-4.083-3.299-4.083-.838.068-1.623.446-2.204,1.041-.581.608-.933,1.406-.96,2.244v1.879l-.014.027ZM74.77,55.76l2.42,6.49c.257.717.527,1.595.703,2.244.216-.663.433-1.501.703-2.285l2.19-6.436h2.123l-3.015,7.829c-1.501,3.759-2.42,5.706-3.799,6.869-.703.635-1.541,1.082-2.461,1.298l-.5-1.69c.649-.216,1.244-.541,1.758-.974.73-.595,1.312-1.366,1.704-2.231.081-.149.135-.311.162-.487-.014-.176-.068-.365-.135-.527l-4.097-10.127h2.19l.027.027h.027ZM88.278,52.596v3.164h2.894v1.501h-2.894v5.922c0,1.352.392,2.136,1.501,2.136.392,0,.784-.041,1.176-.135l.095,1.501c-.581.203-1.176.297-1.785.27-.406.027-.811-.041-1.176-.176-.379-.149-.717-.365-1.001-.663-.608-.825-.892-1.839-.784-2.853v-6.017h-1.717v-1.501h1.744v-2.677l1.961-.46-.014-.014ZM94.876,61.601c-.041.514.027,1.028.203,1.501.176.487.46.919.811,1.285.365.365.798.635,1.284.811s.987.243,1.501.203c1.028.027,2.055-.176,3.015-.568l.352,1.501c-1.163.487-2.42.717-3.691.676-.73.054-1.474-.054-2.163-.325-.69-.257-1.312-.676-1.825-1.19-.514-.527-.919-1.163-1.163-1.852-.257-.69-.352-1.433-.284-2.163,0-3.313,1.974-5.922,5.192-5.922,3.61,0,4.516,3.164,4.516,5.179.014.311.014.622,0,.933h-7.775l.041-.054-.014-.014ZM100.785,60.101c.054-.406.027-.811-.081-1.203-.108-.392-.311-.757-.581-1.055-.27-.311-.595-.554-.96-.73s-.771-.257-1.176-.257c-.825.054-1.595.433-2.177,1.028-.568.595-.892,1.393-.906,2.217h5.882ZM105.679,59.181c0-1.298,0-2.407-.095-3.434h1.812v2.15h.095c.189-.663.581-1.257,1.122-1.69s1.203-.69,1.893-.717c.189-.027.379-.027.568,0v1.879c-.23-.027-.46-.027-.69,0-.69.027-1.339.297-1.825.771-.5.473-.798,1.109-.865,1.785-.054.311-.081.622-.095.933v5.855h-1.988v-7.518h.081l-.014-.014Z" style="fill:#4e4e4e;"/><path d="M104.787,25.541c.068,1.014-.176,2.015-.69,2.894-.514.879-1.271,1.568-2.19,2.015-.906.446-1.934.595-2.934.46-1.001-.149-1.934-.581-2.691-1.257s-1.284-1.568-1.528-2.542c-.243-.987-.189-2.015.149-2.975.338-.946.96-1.785,1.771-2.38s1.785-.946,2.799-.987c.663-.041,1.325.054,1.947.284.622.216,1.203.568,1.69,1.014s.892.987,1.176,1.582.446,1.244.487,1.92l.014-.027Z" style="fill:#767677;"/><path d="M75.041,84.452c-13.535,0-25.433-4.854-31.585-12.034,2.393,6.45,6.693,12.02,12.345,15.955,5.652,3.935,12.372,6.044,19.254,6.044s13.602-2.109,19.254-6.044c5.652-3.935,9.952-9.505,12.345-15.955-6.139,7.18-17.997,12.034-31.585,12.034h-.027Z" style="fill:#f37726;"/><path d="M75.041,37.791c13.535,0,25.433,4.854,31.585,12.034-2.393-6.45-6.693-12.02-12.345-15.955-5.652-3.935-12.372-6.044-19.254-6.044s-13.602,2.109-19.254,6.044c-5.652,3.935-9.952,9.505-12.345,15.955,6.152-7.193,17.997-12.034,31.585-12.034h.027Z" style="fill:#f37726;"/><path d="M56.409,98.419c.081,1.271-.216,2.542-.865,3.637-.649,1.095-1.595,1.988-2.745,2.542-1.149.554-2.434.757-3.705.581-1.257-.176-2.447-.73-3.394-1.582-.946-.852-1.623-1.974-1.934-3.205s-.243-2.542.176-3.745c.433-1.203,1.203-2.245,2.231-3.002,1.028-.757,2.258-1.19,3.529-1.244.838-.041,1.677.081,2.461.352.784.284,1.514.703,2.136,1.271.622.554,1.122,1.23,1.487,1.988.365.757.568,1.568.608,2.407h.014Z" style="fill:#9e9e9e;"/><path d="M44.997,36.155c-.73.014-1.447-.176-2.069-.568-.622-.392-1.109-.946-1.406-1.609-.297-.663-.392-1.406-.284-2.123s.446-1.393.946-1.92,1.149-.906,1.852-1.082c.717-.162,1.46-.122,2.136.135.69.257,1.285.703,1.704,1.298.433.595.676,1.298.703,2.028.027.987-.338,1.947-1.001,2.664-.676.717-1.609,1.149-2.583,1.19v-.014Z" style="fill:#616262;"/></svg>