<?xml version="1.0" encoding="UTF-8"?><svg id="a" xmlns="http://www.w3.org/2000/svg" viewBox="0 0 150 120"><path d="M83.35,40.26c-.71-.89-1.42-1.75-2.13-2.55-2.41-2.53-3.68-3.03-4.43-3.18-.47-.09-.94-.12-1.42-.1-2,.09-3.38,1.15-4.6,2.12-1.22.95-2.29,2.08-3.16,3.36-.02.03-.03.07-.04.11v12.16c0,.07.04.14.11.18.03,0,.06,0,.09,0,.04,0,.09,0,.12-.04l15.42-11.79c.09-.07.1-.19.04-.28Z" style="fill:#29b455;"/><path d="M94.28,43.26c-.27-.39-.58-.75-.93-1.07-1.48-1.35-3.21-1.58-4.73-1.78-1.54-.2-3.1-.15-4.62.14-.04,0-.07.03-.1.05l-8.62,8.63c-.06.05-.07.13-.05.2.02.07.09.12.16.13l19.25,2.56h0c.1,0,.18-.07.2-.17.16-1.1.25-2.21.3-3.32.11-3.48-.44-4.73-.86-5.37Z" style="fill:#02abaf;"/><path d="M100.57,60.38c-.09-2.01-1.15-3.39-2.09-4.6-.95-1.22-2.08-2.29-3.36-3.16-.03-.02-.07-.03-.11-.04h-12.2c-.07,0-.14.04-.18.11-.04.06-.04.14,0,.21l11.82,15.42s.1.07.16.07c.04,0,.09,0,.12-.04.89-.71,1.75-1.42,2.55-2.13,2.53-2.38,3.03-3.65,3.18-4.4.1-.47.13-.96.11-1.44Z" style="fill:#4a98d3;"/><path d="M94.44,69s-.03-.07-.05-.1l-8.63-8.62c-.05-.06-.13-.07-.2-.05-.07.02-.12.09-.13.16l-2.56,19.25c-.01.11.06.21.17.22,1.11.15,2.22.24,3.33.28h.85c2.84,0,3.93-.49,4.51-.87.39-.27.75-.58,1.07-.93,1.35-1.48,1.58-3.21,1.78-4.73.19-1.53.14-3.09-.14-4.6Z" style="fill:#8a2a89;"/><path d="M82.31,67.63c-.06-.04-.14-.04-.21,0l-15.42,11.83c-.09.07-.1.19-.04.28.71.89,1.42,1.75,2.13,2.55,2.38,2.53,3.65,3.03,4.4,3.18.37.07.75.11,1.13.11h.28c2.01-.09,3.39-1.15,4.6-2.09,1.22-.95,2.29-2.08,3.16-3.36.01-.04.01-.08,0-.11v-12.2c.02-.06,0-.13-.04-.18Z" style="fill:#ec1a58;"/><path d="M74.77,70.56c-.02-.07-.09-.12-.16-.13l-19.25-2.56c-.11-.01-.21.06-.22.17-.15,1.1-.24,2.21-.28,3.32-.11,3.47.44,4.72.86,5.36.27.39.58.75.93,1.07,1.48,1.35,3.21,1.58,4.73,1.78.61.08,1.23.12,1.85.12.93,0,1.85-.09,2.76-.26.04,0,.07-.03.1-.06l8.62-8.61c.06-.05.07-.13.05-.2Z" style="fill:#f05525;"/><path d="M67.35,67.1l-11.81-15.42c-.07-.09-.19-.1-.28-.04-.89.71-1.75,1.42-2.55,2.13-2.53,2.41-3.03,3.68-3.18,4.43-.09.47-.13.94-.1,1.42.09,2,1.15,3.38,2.12,4.6.95,1.22,2.08,2.29,3.36,3.16.04.01.08.01.11,0h12.16c.07,0,.14-.04.18-.11.02-.06.01-.12-.01-.17Z" style="fill:#f6aa1b;"/><path d="M66.95,40.11c-1.1-.14-2.21-.22-3.32-.25-3.47-.11-4.72.44-5.36.86-.39.27-.75.58-1.07.93-1.35,1.48-1.58,3.21-1.78,4.73-.19,1.54-.15,3.1.14,4.62,0,.04.03.07.05.1l8.62,8.62s.08.06.13.06h.06c.07-.02.12-.09.13-.16l2.56-19.25c.03-.11-.03-.22-.13-.25-.01,0-.03,0-.04,0Z" style="fill:#a5ce3a;"/></svg>