<?xml version="1.0" encoding="UTF-8"?><svg id="a" xmlns="http://www.w3.org/2000/svg" viewBox="0 0 150 120"><g id="b"><polygon points="110 39.79 75 19.59 40 39.79 40 80.21 75 100.41 110 80.21 110 39.79" style="fill:#42709b;"/><path d="M53.23,59.88v-4.68c-2.49.17-4.47,2.19-4.6,4.68h4.6Z" style="fill:#dce1eb; fill-rule:evenodd;"/><path d="M53.85,59.88h4.69c-.13-2.53-2.16-4.56-4.69-4.69v4.69h0Z" style="fill:#dce1eb; fill-rule:evenodd;"/><path d="M53.23,60.5h-4.6c.17,2.46,2.14,4.42,4.6,4.6v-4.6Z" style="fill:#dce1eb; fill-rule:evenodd;"/><path d="M53.85,60.5v4.6c2.5-.13,4.51-2.12,4.68-4.6h-4.68Z" style="fill:#dce1eb; fill-rule:evenodd;"/><path d="M100.23,57.1h.17v-.39h.13l.24.39h.18l-.24-.4c.06,0,.12-.03.16-.07.04-.04.06-.1.06-.19,0-.09-.03-.16-.08-.21-.05-.05-.14-.07-.25-.07h-.36v.94ZM100.41,56.3h.13s.05,0,.08,0,.05,0,.07.02c.02,0,.04.02.05.04s.02.04.02.07,0,.06-.02.07-.03.03-.05.04c-.02,0-.04.01-.07.02s-.05,0-.08,0h-.13v-.26ZM99.79,56.95c.04.1.1.19.18.26.07.07.16.13.26.18.1.04.21.07.32.07s.22-.02.32-.07.19-.1.26-.18c.07-.07.13-.16.18-.26s.07-.21.07-.32-.02-.22-.07-.32c-.04-.1-.1-.19-.18-.26-.07-.07-.16-.13-.26-.18s-.21-.07-.32-.07-.22.02-.32.07-.19.1-.26.18-.13.16-.18.26c-.04.1-.07.21-.07.32,0,.11.02.22.07.32ZM99.93,56.37c.04-.08.08-.16.14-.22.06-.06.13-.11.22-.14.08-.04.17-.05.26-.05s.18.02.26.05.16.08.22.14.11.13.14.22c.04.08.05.17.05.26s-.02.18-.05.26c-.04.08-.08.16-.14.22-.06.06-.13.11-.22.14-.08.04-.17.05-.26.05s-.18-.02-.26-.05-.16-.08-.22-.14-.11-.13-.14-.22c-.04-.08-.05-.17-.05-.26s.02-.18.05-.26Z" style="fill:#fff;"/><path d="M67.29,57.25v1.16c-.51-.89-1.42-1.47-2.61-1.47-1.89,0-3.21,1.43-3.21,3.38s1.32,3.36,3.21,3.36c1.19,0,2.1-.57,2.61-1.46v3.75c0,.13.09.21.21.21h.36c.13,0,.21-.09.21-.21v-8.71c0-.13-.09-.21-.21-.21h-.36c-.13,0-.21.09-.21.21ZM64.77,62.93c-1.52,0-2.54-1.08-2.54-2.61s1.02-2.64,2.54-2.64,2.52,1.11,2.52,2.64c0,1.53-.99,2.61-2.52,2.61Z" style="fill:#fff;"/><path d="M74.73,57.25v3.73c0,1.29-.88,2.01-2.01,2.01s-2.01-.72-2.01-2.01v-3.73c0-.13-.09-.21-.21-.21h-.36c-.13,0-.21.09-.21.21v3.83c0,1.79,1.28,2.6,2.62,2.6.87,0,1.7-.34,2.19-1.08v.75c0,.13.09.21.21.21h.36c.13,0,.21-.09.21-.21v-6.1c0-.13-.09-.21-.21-.21h-.36c-.13,0-.21.09-.21.22Z" style="fill:#fff;"/><path d="M83,57.25v1.15c-.51-.89-1.42-1.46-2.61-1.46-1.89,0-3.21,1.4-3.21,3.36s1.32,3.38,3.21,3.38c1.19,0,2.1-.58,2.61-1.47v1.15c0,.13.09.21.21.21h.36c.13,0,.21-.09.21-.21v-6.1c0-.13-.09-.21-.21-.21h-.36c-.13,0-.21.09-.21.21ZM80.47,62.93c-1.52,0-2.54-1.09-2.54-2.62s1.02-2.62,2.54-2.62,2.52,1.09,2.52,2.62-.99,2.62-2.52,2.62Z" style="fill:#fff;"/><path d="M86.4,58.25v-.99c0-.13-.09-.21-.21-.21h-.36c-.13,0-.21.09-.21.21v6.1c0,.13.09.21.21.21h.36c.13,0,.21-.09.21-.21v-3.48c0-1.42,1.02-2.09,2.1-2.19.13-.01.2-.1.2-.23v-.31c0-.14-.07-.21-.21-.2-.86.07-1.64.5-2.09,1.29Z" style="fill:#fff;"/><path d="M93.05,57.45v-.2c0-.13-.09-.21-.21-.21h-1.42v-1.77c0-.13-.09-.21-.21-.21h-.36c-.13,0-.21.09-.21.21v1.77h-.72c-.13,0-.21.09-.21.21v.2c0,.13.09.21.21.21h.72v4.45c0,.92.57,1.45,1.46,1.45h.67c.13,0,.21-.09.21-.21v-.23c0-.13-.09-.21-.21-.21h-.42c-.5,0-.92-.23-.92-.89v-4.36h1.42c.14,0,.22-.08.22-.21Z" style="fill:#fff;"/><path d="M97.27,63.7c1.96,0,3.29-1.45,3.29-3.39s-1.33-3.38-3.29-3.38-3.3,1.42-3.3,3.38,1.35,3.39,3.3,3.39ZM97.27,62.93c-1.5,0-2.52-1.12-2.52-2.62s1.02-2.62,2.52-2.62,2.5,1.12,2.5,2.62c0,1.5-.99,2.62-2.5,2.62Z" style="fill:#fff;"/></g></svg>