<?xml version="1.0" encoding="UTF-8"?><svg id="a" xmlns="http://www.w3.org/2000/svg" viewBox="0 0 150 120"><path d="M80.85,69.52c-.22-.14-.49-.21-.75-.21-.47,0-.84.16-1.1.46-.26.31-.39.71-.39,1.2s.13.91.38,1.21c.26.31.62.46,1.1.46.42,0,.77-.14,1.06-.44s.43-.68.43-1.16v-.08c0-.32-.07-.61-.2-.86-.13-.25-.31-.45-.54-.59Z" style="fill:#212d2c;"/><path d="M86.79,69.28c-.42,0-.76.16-1.01.49-.26.33-.38.74-.38,1.23s.14.88.41,1.2.62.49,1.05.49.77-.16,1.01-.48c.25-.32.37-.72.37-1.21s-.13-.89-.4-1.22c-.27-.33-.62-.5-1.05-.5Z" style="fill:#212d2c;"/><path d="M64.51,69.54c-.22-.14-.49-.21-.75-.21-.47,0-.84.16-1.1.46-.26.31-.39.71-.39,1.2s.13.91.38,1.21c.26.31.62.46,1.1.46.42,0,.77-.14,1.06-.44.29-.29.43-.68.43-1.16v-.08c0-.32-.07-.61-.2-.86s-.31-.45-.54-.59Z" style="fill:#212d2c;"/><path d="M42.19,41.05v37.89l32.81,18.94,32.81-18.95v-37.89l-32.81-18.94-32.81,18.94ZM49.4,69.58c-.07-.04-.21-.07-.43-.07-.35,0-.66.11-.95.34s-.43.58-.43,1.07v2.64h-1.2v-5.14h1.2v1.01c.12-.34.31-.62.58-.83.26-.21.58-.32.91-.31.24,0,.4.02.49.07l-.17,1.22ZM59.77,73.56h-1.21v-2.59c0-.61-.06-1.04-.18-1.3-.12-.26-.36-.39-.7-.39-.47,0-.82.16-1.06.47s-.36.73-.36,1.25v2.55h-1.2v-2.77c0-.39-.01-.69-.04-.89s-.11-.35-.24-.46-.35-.17-.64-.17c-.26,0-.5.08-.72.24-.22.16-.41.37-.54.63-.14.26-.21.56-.21.86v2.55h-1.21v-5.14h0,1.2v.93c.16-.35.4-.62.71-.79.31-.18.67-.27,1.08-.27.91,0,1.47.32,1.67.95.16-.29.41-.52.73-.69.32-.17.67-.26,1.03-.26.53,0,.94.1,1.21.31s.46.5.55.87.14.88.14,1.52v2.58ZM66.51,73.56h-1.13l-.02-.91c-.12.27-.36.51-.69.71-.33.21-.71.31-1.12.31-.44,0-.88-.11-1.27-.32-.39-.22-.7-.53-.93-.94s-.35-.88-.35-1.43.1-1.01.31-1.41.49-.72.87-.94c.38-.22.82-.34,1.33-.34.28,0,.57.05.83.16.26.11.48.23.65.39.18.15.29.3.36.45l.02-.86h1.14v5.14ZM71.09,69.58c-.07-.04-.21-.07-.43-.07-.35,0-.66.11-.95.34s-.43.58-.43,1.07v2.64h-1.2v-5.14h1.2v1.01c.12-.34.31-.62.58-.83.26-.21.58-.32.91-.31.24,0,.4.02.49.07l-.17,1.22ZM75.29,73.56l-1.03-1.68-.29-.57-.66.73v1.52h-1.15v-8.23h1.14v4.51l-.02.87,1.94-2.29h1.47l-1.92,2.15,1.93,2.99h-1.41ZM82.87,73.56h-1.14l-.02-.91c-.12.27-.36.51-.69.71-.33.21-.71.31-1.12.31-.44,0-.88-.11-1.27-.33-.39-.22-.7-.53-.93-.94-.23-.41-.35-.88-.35-1.43,0-.81.22-1.46.67-1.95s1.06-.73,1.83-.73c.43,0,.82.11,1.17.32s.59.47.72.77l-.06-.87v-3.17h1.17v8.23ZM89.15,72.34c-.22.41-.54.74-.94.97-.4.24-.87.36-1.39.36s-.99-.12-1.4-.36c-.4-.23-.72-.57-.94-.97-.22-.41-.33-.87-.33-1.37s.11-.94.33-1.36c.21-.41.54-.74.94-.97.41-.24.87-.36,1.41-.36s1,.12,1.4.36c.39.23.72.57.93.97.22.41.33.86.33,1.36s-.11.96-.33,1.37ZM95.58,73.56h-.21l-1.5-2.85-1.51,2.85h-.21l-2.14-5.14h1.29l1.1,2.99,1.45-2.99h.04l1.46,2.97,1.1-2.97h1.26l-2.13,5.14ZM103.22,69.54c.1.39.14.91.14,1.54v2.48h-1.2v-2.44c0-.65-.06-1.12-.19-1.4-.12-.29-.38-.43-.77-.43-.22,0-.45.07-.67.21s-.42.34-.57.6c-.15.26-.23.57-.23.92v2.55h-1.2v-5.14h1.17v.94c.15-.31.37-.57.67-.77.3-.2.66-.3,1.06-.3.52,0,.93.11,1.21.33s.47.53.57.92ZM102.79,41.87c-2.86.87-5.66,1.93-8.38,3.17-3.72,1.69-7.06,3.62-10.08,5.56-.48-.19-.98-.34-1.48-.47-.92-.23-1.67-.31-1.68-.27,0,.04.76.13,1.67.57.32.15.62.34.91.54-.37.24-.73.48-1.09.71-1.52-.71-3.18-1.11-4.86-1.16,1.3.41,2.47,1.15,3.41,2.14-1.17.8-2.29,1.58-3.36,2.34-1.32-.79-2.81-1.24-4.35-1.33,1.22.42,2.28,1.22,3.02,2.27-5.94,4.19-10.35,7.15-14.02,5.68-.02-.01-.07-.03-.14-.06-1.59-.62-3.84-1.5-5.77-.78-1.34.51-2.86,1.92-3.11,2.37-.03.05-.15.29-.39.38-.18.06-.36.02-.5-.02-1.6.7-3.1,1.64-4.42,2.78-.62.02-1.24.12-1.84.29l5.86-3.72c0-.1.04-.25.14-.39.16-.21.41-.25.46-.26.59-.13,2.24-1.3,3.42-2.7,0,0,1.07-1.26,1.77-2.89.12-.3.21-.52.22-.55,2.54-6.65,26.14-11.27,28.78-11.78,3.88-.74,9.28-1.66,15.81-2.45Z" style="fill:#212d2c;"/><path d="M48.17,68.6c-.27.21-.46.48-.58.83v-1.01h-1.2v5.14h1.2v-2.64c0-.49.14-.85.43-1.07s.6-.34.95-.34c.22,0,.37.02.43.07l.17-1.22c-.09-.04-.25-.07-.49-.07-.33,0-.65.11-.91.31Z" style="fill:#2de0c6;"/><path d="M59.08,68.6c-.27-.21-.67-.31-1.21-.31-.36,0-.71.09-1.03.26-.32.17-.57.4-.73.69-.21-.63-.77-.94-1.67-.95-.41,0-.77.09-1.08.27-.31.18-.55.44-.71.79v-.93h-1.2v5.14h1.21v-2.55c0-.3.07-.59.21-.86.14-.27.32-.48.54-.63.22-.16.47-.24.72-.24.29,0,.51.06.64.17s.21.26.24.46.04.49.04.89v2.77h1.2v-2.55c0-.51.12-.93.36-1.25s.59-.47,1.06-.47c.35,0,.58.13.7.39.12.26.18.69.18,1.3v2.59h1.21v-2.58c0-.63-.04-1.14-.14-1.52s-.28-.67-.55-.87Z" style="fill:#a9fdff;"/><path d="M65.35,69.28c-.06-.15-.18-.3-.36-.45-.17-.15-.39-.28-.65-.39-.26-.11-.55-.16-.83-.16-.51,0-.95.11-1.33.34-.37.22-.67.54-.87.94s-.31.87-.31,1.41.12,1.02.35,1.43.54.72.93.94c.39.22.82.33,1.27.32.41,0,.79-.1,1.12-.31.33-.21.56-.44.69-.71l.02.91h1.13v-5.14h-1.14l-.02.86ZM65.25,71.07c0,.48-.14.86-.43,1.16-.29.29-.64.44-1.06.44-.48,0-.85-.15-1.1-.46-.26-.31-.38-.71-.38-1.21s.13-.89.39-1.2c.26-.31.62-.46,1.1-.46.26,0,.53.07.75.21.23.14.41.34.54.59s.2.54.2.86v.08Z" style="fill:#a9fdff;"/><path d="M69.86,68.6c-.27.21-.46.48-.58.83v-1.01h-1.2v5.14h1.2v-2.64c0-.49.14-.85.43-1.07s.6-.34.95-.34c.22,0,.37.02.43.07l.17-1.22c-.09-.04-.25-.07-.49-.07-.33,0-.65.11-.91.31Z" style="fill:#a9fdff;"/><polygon points="76.69 68.42 75.21 68.42 73.27 70.72 73.3 69.85 73.3 65.33 72.15 65.33 72.15 73.56 73.31 73.56 73.31 72.04 73.97 71.31 74.26 71.88 75.29 73.56 76.7 73.56 74.77 70.57 76.69 68.42" style="fill:#a9fdff;"/><path d="M81.69,68.5l.06.87c-.12-.3-.36-.55-.72-.77s-.75-.32-1.17-.32c-.77,0-1.38.24-1.83.73s-.67,1.14-.67,1.95c0,.54.12,1.02.35,1.43.23.41.54.72.93.94.39.22.82.33,1.27.33.41,0,.79-.1,1.12-.31.33-.21.56-.44.69-.71l.02.91h1.14v-8.23h-1.17v3.17ZM81.6,71.06c0,.48-.14.86-.43,1.16s-.64.44-1.06.44c-.48,0-.85-.16-1.1-.46-.26-.31-.38-.71-.38-1.21s.13-.89.39-1.2c.26-.31.62-.46,1.1-.46.26,0,.53.07.75.21.23.14.41.34.54.59.13.25.2.54.2.86v.08Z" style="fill:#a9fdff;"/><path d="M88.23,68.65c-.4-.24-.87-.36-1.4-.36s-1,.12-1.41.36c-.4.23-.72.57-.94.97-.22.41-.33.86-.33,1.36s.11.96.33,1.37c.22.41.54.74.94.97.41.24.87.36,1.4.36s.99-.12,1.39-.36c.39-.23.72-.57.94-.97.22-.41.33-.87.33-1.37s-.11-.94-.33-1.36c-.21-.41-.54-.74-.93-.97ZM87.87,72.21c-.25.32-.58.48-1.01.48s-.78-.16-1.05-.49-.41-.72-.41-1.2.13-.9.38-1.23c.25-.33.59-.49,1.01-.49s.79.16,1.05.5c.27.33.4.74.4,1.22s-.12.89-.37,1.21Z" style="fill:#a9fdff;"/><polygon points="95.35 71.39 93.89 68.43 93.84 68.43 92.39 71.41 91.29 68.43 90.01 68.43 92.15 73.56 92.36 73.56 93.86 70.71 95.37 73.56 95.58 73.56 97.71 68.43 96.45 68.43 95.35 71.39" style="fill:#a9fdff;"/><path d="M101.44,68.29c-.41,0-.76.1-1.06.3-.3.2-.52.46-.66.77v-.94h-1.19v5.14s1.2,0,1.2,0v-2.55c0-.35.07-.66.23-.92.15-.26.34-.46.57-.6s.45-.21.67-.21c.39,0,.65.14.77.43.12.29.19.76.19,1.4v2.44h1.2v-2.48c0-.63-.05-1.15-.14-1.54s-.29-.7-.57-.92-.68-.33-1.21-.33Z" style="fill:#a9fdff;"/><path d="M58.2,56.09s-.09.25-.22.55c-.69,1.63-1.77,2.89-1.77,2.89-1.19,1.4-2.84,2.57-3.42,2.7-.05.01-.3.06-.46.26-.1.13-.13.28-.14.39l-5.86,3.72c.6-.17,1.22-.27,1.84-.29,1.33-1.14,2.82-2.08,4.42-2.78.14.05.32.09.5.02.24-.09.36-.33.39-.38.25-.45,1.77-1.87,3.11-2.37,1.92-.72,4.18.15,5.77.78.07.02.11.04.14.06,3.67,1.46,8.08-1.5,14.02-5.68-.74-1.05-1.8-1.85-3.02-2.27,1.54.08,3.03.54,4.35,1.33,1.07-.76,2.19-1.54,3.36-2.34-.94-.99-2.11-1.72-3.41-2.14,1.68.05,3.34.44,4.86,1.16.36-.24.72-.48,1.09-.71-.29-.2-.59-.39-.91-.54-.91-.44-1.68-.53-1.67-.57,0-.04.76.04,1.68.27.5.12.99.28,1.48.47,3.02-1.94,6.36-3.86,10.08-5.56,2.72-1.24,5.52-2.3,8.38-3.17-6.53.78-11.93,1.71-15.81,2.45-2.64.5-26.24,5.12-28.78,11.78ZM97.37,42.82h0s0,0,0,0h0s0,.01,0,.01c-4.51,1.17-9.02,2.55-13.38,4.07s-8.72,3.26-12.94,5.14c-4.36,1.94-8.7,4.11-12.91,6.43h0c6.13-4.15,12.7-7.61,19.54-10.27,6.35-2.48,12.98-4.29,19.7-5.39Z" style="fill:#a9fdff;"/><polygon points="97.37 42.82 97.37 42.82 97.37 42.82 97.37 42.82" style="fill:#212d2c;"/><path d="M97.19,42.86c-6.66,1.1-13.23,2.9-19.52,5.36-6.78,2.64-13.3,6.06-19.38,10.15,4.15-2.29,8.44-4.42,12.74-6.34,4.22-1.88,8.57-3.61,12.94-5.14,4.31-1.51,8.75-2.87,13.21-4.03Z" style="fill:#212d2c;"/><path d="M58.14,58.48c4.21-2.32,8.55-4.49,12.91-6.43,4.22-1.88,8.57-3.61,12.94-5.14s8.87-2.9,13.38-4.07h0s0-.01,0-.01h0c-6.73,1.09-13.35,2.91-19.7,5.38-6.84,2.67-13.41,6.12-19.54,10.26h0ZM58.3,58.37c6.08-4.09,12.6-7.51,19.38-10.15,6.29-2.45,12.86-4.26,19.52-5.36-4.45,1.16-8.89,2.52-13.21,4.03-4.37,1.53-8.72,3.26-12.94,5.14-4.3,1.92-8.59,4.05-12.74,6.34Z"/><path d="M75,19.59l-35,20.21v40.41l35,20.21,35-20.21v-40.41l-35-20.21ZM107.81,78.94l-32.81,18.95-32.81-18.94v-37.89l32.81-18.94,32.81,18.94v37.89Z" style="fill:#24e2be;"/></svg>