<?xml version="1.0" encoding="UTF-8"?><svg id="a" xmlns="http://www.w3.org/2000/svg" xmlns:xlink="http://www.w3.org/1999/xlink" viewBox="0 0 150 120"><defs><linearGradient id="c" x1="74.9" y1="1273.04" x2="75.03" y2="1226.77" gradientTransform="translate(0 1278.44) scale(1 -1)" gradientUnits="userSpaceOnUse"><stop offset="0" stop-color="#fff" stop-opacity=".83"/><stop offset=".56" stop-color="#fff" stop-opacity=".37"/><stop offset="1" stop-color="#fff" stop-opacity="0"/></linearGradient></defs><g id="b"><path d="M107.21,38.18l-26.47-15.28-5.75-3.32-5.75,3.32-26.47,15.28-2.79,1.61v40.42l2.79,1.61,26.8,15.47,5.42,3.12,5.42-3.12,26.8-15.47,2.77-1.6v-40.43l-2.79-1.61Z" style="fill:#0088da;"/><path d="M75,79.89s.06-.06.09-.09h-.03s-.03.06-.06.09Z" style="fill:#e2b058;"/><path d="M51.77,63.13h0c-.31,0-.11,0,0,0ZM51.76,63.13c-.31,0-.17,0-.07,0h.16-.09c.07,0,.09.01,0,0ZM59.66,58.48c.66-2.54-2.43-5.93-2.68-6.25,0,0,0,0,0-.01-3.7-3.78-1.8-7.56.79-7.15,1.86.31.9,3.03,1.9,3.3h.02c.6.06,1.77-1.38,1.94-1.87.67-1.89-3.18-3.04-4.35-2.96-2.35.14-3.9,1.42-4.84,3.53-1.73,3.88,1.51,6.46,3.47,9.12,1.49,2.01,1.42,3.8-.4,5.53-2,1.9-4.03-.79-4.3-2.63-.24-1.69-.51-2.78-1.92-.64-1.31,1.99.51,4.43,2.16,4.69.39.03,6.51,1.37,8.24-4.65ZM85.22,69.14c-9.03.82-22.32,2.04-25.12,11.82-.02.06-.07.09-.12.07-.03,0-.05-.02-.06-.05-2.74-4.69-8.64-8.13-14.11-7.96-.06,0-.11-.02-.11-.07s.02-.11.07-.11c14.08-6.99,28.46-3.64,43.67-6.36,6.37-1.67,10.33-4.64,12.48-9.7.36-.62.34-1.57-.65-.89-1.53,1.04-2.95,2.54-4.61,3.35-.07.04-.16.07-.25.11-.03,0-.05.04-.06.07-4.83,11.02-18.27,1.94-2.5-.36.04,0,.07-.04.07-.07l.89-2.89c.02-.06-.02-.11-.07-.12-.04,0-.09,0-.11.04-.36.53-.76,1.04-1.19,1.52-.56.59-1,.95-1.33,1.09-.38.14-.78.23-1.18.25-.48.03-.89-.16-1.2-.56-.31-.4-.49-.99-.52-1.77,0-.12,0-.27,0-.42,0-.06-.02-.11-.07-.12-.06,0-.11.02-.12.07-.15.29-.31.57-.46.82-.45.78-1.01,1.5-1.65,2.14s-1.24.96-1.8,1c-1.06.07-1.63-.53-1.7-1.79-.07-1.2.4-3.67,1.43-7.34.06-.16.07-.33.07-.49-.02-.33-.21-.47-.6-.44-.45.04-.88.22-1.23.51-.44.37-.8.83-1.06,1.34-.31.57-.59,1.16-.85,1.76-.27.66-.49,1.34-.66,2.04-.19.77-.35,1.42-.46,1.92-.11.52-.22,1.08-.32,1.65-.07.4-.16.9-.18.97l-.02.07s-2.6.18-2.62.17c-.06-.47.46-2.25.52-2.52-.47.83-.66,1.09-1.04,1.6-.25.31-.52.61-.8.9-.63.63-1.24.96-1.8,1h-.11c-.92,0-1.45-.72-1.53-2.15-.02-.29-.03-.57-.02-.87,0-.06-.02-.11-.07-.12-.06,0-.11.02-.12.07-1.44,2.64-2.74,3.97-3.93,4.05-1.06.07-1.63-.56-1.72-1.88-.09-1.46.31-3.59,1.19-6.34.19-.68.27-1.14.26-1.39-.03-.38-.2-.43-.34-.43h-.04c-.12,0-.39.09-.95.44-.49.32-.92.72-1.28,1.19-.41.53-.73,1.13-.97,1.76-.25.67-.45,1.25-.59,1.73s-.29,1.09-.43,1.77-.27,1.28-.38,1.72c-.11.44-.23.94-.34,1.52l-.02.07-2.52.16c-.06,0-.11-.04-.11-.09v-.04h0c.37-1.29.9-3.37,1.56-6.19.67-2.82,1.28-5.08,1.77-6.7.43-1.41.93-2.8,1.52-4.15.46-1.05,1.08-2.03,1.83-2.9.71-.8,1.52-1.23,2.36-1.29.9-.06,1.37.39,1.44,1.32.04.62-.14,1.45-.53,2.49-.71,1.84-1.9,3.98-3.55,6.37-.04.04-.04.11,0,.14s.11.04.14,0c.29-.22.59-.42.91-.58.48-.25,1-.39,1.54-.44,1.02-.07,1.56.4,1.63,1.38.03.36,0,.72-.11,1.07-.09.31-.2.69-.32,1.1-.11.41-.21.75-.29,1.01-.07.27-.17.62-.29,1.07-.12.45-.22.84-.27,1.14-.17.77-.24,1.39-.21,1.84.04.57.27.57.34.57h.03c.96-.06,2.1-1.73,3.38-4.97,0-.02,0-.03.02-.05.29-1.07.67-2.12,1.11-3.12.53-1.17,1.18-1.79,1.94-1.84l1.52-.07c.06,0,.11.04.11.09,0,.03,0,.06-.03.07h0c-.24.23-.55.84-.93,1.82-.4,1.06-.68,1.78-.86,2.27-.18.51-.39,1.19-.61,2.05s-.31,1.54-.27,2.06c.05.68.31.68.39.68h.03c.13,0,.38-.11.83-.51.34-.31.64-.67.89-1.06.23-.37.48-.84.75-1.41.27-.57.51-1.07.71-1.49.22-.45.31-.6.36-.66l.12-.23c.47-1.89.69-3.21.64-3.95,0-.12-.03-.25-.09-.36h0s-.03-.11.02-.13c.02,0,.04-.02.06-.02l1.06-.07c.62-.04,1.01,0,1.21.13s.32.35.33.58c0,.23-.02.47-.07.69,0,.06.03.11.09.11.03,0,.07,0,.09-.03,1.19-1.24,2.43-1.9,3.71-1.98,1.02-.07,1.57.42,1.63,1.44.02.32,0,.65-.07.97s-.23.95-.51,1.92c-.6,2.09-.89,3.49-.84,4.17.03.49.22.54.36.54h.03c.13,0,.38-.11.82-.52.34-.32.64-.69.9-1.08.27-.45.53-.91.76-1.39.27-.55.51-1.05.71-1.47.07-.15.12-.27.17-.36,0,0,0,0,0-.02.27-1.16.6-2.12.97-2.87.43-.88.91-1.46,1.43-1.74.51-.29,1.22-.45,2.12-.51h0c.11,0,.21.07.22.18v.02c0,.11-.05.22-.16.36-.64.69-1.26,1.92-1.86,3.66-.6,1.73-.86,3.19-.79,4.35.04.53.17.81.4.81h.02c.56-.04,1.28-.73,2.1-2.08.81-1.28,1.45-2.65,1.9-4.09.06-.19.13-.46.24-.82.11-.36.18-.6.22-.73s.11-.32.21-.56c.06-.19.16-.36.27-.51,0,0,.01-.01.02-.02.07-.08.19-.19.31-.33.13-.14.29-.25.47-.31.45-.13.91-.22,1.37-.26l1.06-.07s.11,0,.12.06c.02.05,0,.11-.06.12l-.02.02c-.48.37-.94,1.26-1.38,2.64-.36,1.17-.67,2.26-.91,3.22s-.39,1.55-.45,1.76c-.06.21-.18.72-.37,1.51-.14.59-.27,1.08-.37,1.47-.02.05,0,.11.05.12.03,0,.07,0,.09-.02,1.04-.62,1.99-1.36,2.86-2.21.49-.49,4.34-4.56,4.34-1.98-.24,9.55-9.92,14.5-18.95,15.32ZM68.92,42.15c-.37.02-1.03.59-2.02,3.14-.69,1.76-1.35,3.77-1.99,5.98-.02.06.02.11.07.12.04,0,.09,0,.11-.04,1.72-2.62,2.9-4.8,3.53-6.51.39-1.16.57-1.94.55-2.28-.03-.42-.19-.42-.24-.42h-.02ZM93.51,60.4c-.4.07-5.28,1.33-4.78,2.41.56,1.22,3.86-.34,4.78-2.41ZM76.62,47.84h0c.61-.03,1.37-.26,1.55-1.16.09-.41-.16-.88-.31-1.01-.15-.13-.36-.19-.64-.17s-.61.19-.92.49c-.42.39-.4.95-.27,1.32.12.32.34.52.59.54Z" style="fill:#fff; isolation:isolate; opacity:.9;"/><path d="M103.52,38.37c-5,8-15.9,13.55-28.53,13.55s-23.53-5.54-28.53-13.54l-2.66,1.54-1.79,1.03v38.09l1.79,1.03,26.8,15.47,4.42,2.55,4.42-2.55,26.8-15.47,1.77-1.02v-38.1l-1.79-1.03-2.68-1.55Z" style="fill:none;"/><path d="M74.99,51.6c12.63,0,23.53-5.55,28.53-13.55l-23.78-13.73-4.74-2.74-4.74,2.74-23.8,13.75c5.01,8,15.89,13.54,28.53,13.54Z" style="fill:url(#c); isolation:isolate; opacity:.25;"/><path d="M107.21,38.18l-26.47-15.28-5.75-3.32-5.75,3.32-26.47,15.28-2.79,1.61v40.42l2.79,1.61,26.8,15.47,5.42,3.12,5.42-3.12,26.8-15.47,2.77-1.6v-40.43l-2.79-1.61ZM108,79.06l-1.77,1.02-26.8,15.47-4.42,2.55-4.42-2.55-26.8-15.47-1.79-1.03v-38.1l1.79-1.03,2.66-1.54,23.8-13.75,4.74-2.74,4.74,2.74,23.78,13.73,2.68,1.55,1.79,1.03v38.1h0Z" style="fill:#0078be;"/><polygon points="103.52 38.37 79.74 24.64 106.21 39.92 103.52 38.37" style="fill:none;"/></g></svg>