<?xml version="1.0" encoding="UTF-8"?><svg id="a" xmlns="http://www.w3.org/2000/svg" viewBox="0 0 150 120"><path d="M59.37,32.9h2.43v2.41h2.24v-2.41h2.43v7.3h-2.43v-2.43h-2.22v2.43h-2.46M69.71,35.33h-2.15v-2.43h6.74v2.43h-2.16v4.87h-2.43M75.37,32.9h2.55l1.57,2.57,1.57-2.57h2.55v7.3h-2.43v-3.62l-1.7,2.63-1.7-2.63v3.62h-2.39M84.81,32.9h2.43v4.89h3.45v2.41h-5.89"/><path d="M59.29,82.76l-3.49-39.21h38.41l-3.49,39.19-15.74,4.36" style="fill:#e44d26;"/><path d="M75,83.77v-37h15.7l-3,33.45" style="fill:#f16529;"/><path d="M62.93,51.56h12.07v4.81h-6.8l.44,4.92h6.35v4.8h-10.76M64.46,68.5h4.83l.34,3.84,5.38,1.44v5.02l-9.87-2.75" style="fill:#ebebeb;"/><path d="M87.03,51.56h-12.05v4.81h11.6M86.15,61.29h-11.17v4.81h5.93l-.56,6.25-5.37,1.44v5l9.85-2.73" style="fill:#fff;"/></svg>