<?xml version="1.0" encoding="UTF-8"?>
<svg id="a" xmlns="http://www.w3.org/2000/svg" version="1.1" viewBox="0 0 150 120">
  <!-- Generator: Adobe Illustrator 29.3.1, SVG Export Plug-In . SVG Version: 2.1.0 Build 151)  -->
  <defs>
    <style>
      .st0 {
        fill: #fff;
      }

      .st1 {
        fill: #17212b;
      }

      .st2 {
        fill: none;
        stroke-linecap: round;
      }

      .st2, .st3 {
        stroke: #17212b;
      }

      .st3 {
        fill: #d1dbe5;
      }
    </style>
  </defs>
  <rect class="st3" x="45.5" y="38.5" width="49" height="51" rx="1.5" ry="1.5"/>
  <path class="st0" d="M85.9,56.1c-.8-.8-2-.8-2.8,0l-11.3,11.3-6.6-6.6s0,0,0,0c-.8-.8-2-.8-2.8,0l-7.8,7.8c-.8.8-.8,2,0,2.8.8.8,2.1.8,2.8,0l6.4-6.4,6.5,6.5s0,0,0,0c.8.8,2,.8,2.8,0l12.8-12.8c.8-.8.8-2,0-2.8h0Z"/>
  <path class="st1" d="M71.7,72.7c-.7,0-1.3-.3-1.7-.7h0c0,0-6.1-6.2-6.1-6.2l-6,6c-.9,1-2.6,1-3.5,0-.5-.5-.7-1.1-.7-1.8s.3-1.3.7-1.8l7.8-7.8c1-1,2.6-1,3.5,0l6.3,6.3,11-11c.9-.9,2.5-.9,3.5,0,.5.5.7,1.1.7,1.7s-.3,1.3-.7,1.7l-12.8,12.8c-.5.5-1.1.7-1.7.7h0ZM63.8,64.3l7,7c.5.5,1.5.5,2.1,0l12.8-12.8c.3-.3.4-.6.4-1s-.2-.8-.4-1c-.5-.5-1.5-.5-2.1,0l-11.7,11.7-6.9-6.9c-.6-.6-1.6-.6-2.1,0l-7.8,7.8c-.3.3-.4.7-.4,1.1s.2.8.4,1.1c.6.6,1.6.6,2.1,0l6.7-6.7h0Z"/>
  <path class="st2" d="M55.5,34.5v-2c0-1.1.9-2,2-2h45c1.1,0,2,.9,2,2v46c0,1.1-.9,2-2,2h-3"/>
</svg>